<?xml version="1.0" encoding="UTF-8"?>
<svg width="700pt" height="700pt" fill="currentColor" version="1.1" viewBox="0 0 700 700" xmlns="http://www.w3.org/2000/svg">
 <path d="m557.14 559.98c-7.4492 0-14.465-2.875-19.73-8.1562l-187.39-187.38-187.43 187.38c-5.2656 5.2656-12.266 8.1562-19.73 8.1562-7.4648 0-14.484-2.8945-19.785-8.1758l-44.93-44.93c-5.2461-5.2656-8.1406-12.281-8.1406-19.73 0-7.4297 2.8945-14.449 8.1562-19.691l187.45-187.43-187.41-187.41c-10.863-10.883-10.863-28.617 0-39.5l44.949-44.93c5.2617-5.2812 12.262-8.1758 19.73-8.1758 7.4492 0 14.484 2.8945 19.75 8.1758l187.45 187.45 187.39-187.45c5.2656-5.2812 12.266-8.1758 19.711-8.1758 7.4492 0 14.449 2.8945 19.73 8.1758l44.93 44.949c10.883 10.883 10.883 28.617 0 39.5l-187.38 187.41 187.39 187.41c10.844 10.883 10.844 28.578-0.019531 39.441l-44.93 44.949c-5.2812 5.2617-12.301 8.1367-19.766 8.1367z"/>
</svg>
